<svg width="154" height="25" viewBox="0 0 154 25" fill="none" xmlns="http://www.w3.org/2000/svg">
<path d="M-0.000351559 23.6699L9.95965 0.719921H10.1996L20.1596 23.6699H15.1196L8.75965 7.52992L11.9096 5.36992L4.28965 23.6699H-0.000351559ZM6.80965 15.6899H13.4396L14.9696 19.3499H5.45965L6.80965 15.6899ZM22.6883 -7.9155e-05H26.8883V23.6699H22.6883V-7.9155e-05ZM35.4437 24.2999C34.2637 24.2999 33.2737 23.9399 32.4737 23.2199C31.6737 22.4799 31.2537 21.5299 31.2137 20.3699V10.5599H35.4137V18.8099C35.4537 19.3899 35.6037 19.8599 35.8637 20.2199C36.1237 20.5599 36.5637 20.7299 37.1837 20.7299C37.8037 20.7299 38.3337 20.5199 38.7737 20.0999C39.2337 19.6799 39.5837 19.1099 39.8237 18.3899C40.0837 17.6499 40.2137 16.8199 40.2137 15.8999V10.5599H44.4137V23.6699H40.6037L40.2737 21.2699L40.3337 21.5399C40.0337 22.0799 39.6537 22.5599 39.1937 22.9799C38.7337 23.3999 38.1837 23.7199 37.5437 23.9399C36.9237 24.1799 36.2237 24.2999 35.4437 24.2999ZM52.5132 10.5599L52.9032 14.1599L52.8132 13.6199C53.1932 12.8399 53.7132 12.1799 54.3732 11.6399C55.0332 11.0799 55.6832 10.6499 56.3232 10.3499C56.9832 10.0499 57.4832 9.89992 57.8232 9.89992L57.6132 14.0999C56.6332 13.9799 55.7932 14.1399 55.0932 14.5799C54.3932 15.0199 53.8532 15.5999 53.4732 16.3199C53.0932 17.0399 52.9032 17.7799 52.9032 18.5399V23.6699H48.7332V10.5599H52.5132ZM66.1185 24.0299C64.8985 24.0299 63.7885 23.7899 62.7885 23.3099C61.8085 22.8099 61.0285 22.0499 60.4485 21.0299C59.8685 20.0099 59.5785 18.7099 59.5785 17.1299C59.5785 15.6499 59.8785 14.3699 60.4785 13.2899C61.0785 12.2099 61.8685 11.3799 62.8485 10.7999C63.8285 10.1999 64.8685 9.89992 65.9685 9.89992C67.2685 9.89992 68.2485 10.1199 68.9085 10.5599C69.5885 10.9799 70.1485 11.4499 70.5885 11.9699L70.4085 12.4799L70.7985 10.5599H74.6985V23.6699H70.4985V20.8199L70.8285 21.7199C70.7885 21.7199 70.6685 21.8399 70.4685 22.0799C70.2685 22.2999 69.9685 22.5699 69.5685 22.8899C69.1885 23.1899 68.7085 23.4499 68.1285 23.6699C67.5685 23.9099 66.8985 24.0299 66.1185 24.0299ZM67.3185 20.6099C67.8185 20.6099 68.2685 20.5399 68.6685 20.3999C69.0685 20.2399 69.4185 20.0199 69.7185 19.7399C70.0185 19.4399 70.2785 19.0699 70.4985 18.6299V15.4199C70.3385 14.9799 70.0985 14.6099 69.7785 14.3099C69.4585 13.9899 69.0785 13.7499 68.6385 13.5899C68.1985 13.4099 67.7085 13.3199 67.1685 13.3199C66.5685 13.3199 66.0085 13.4799 65.4885 13.7999C64.9885 14.0999 64.5885 14.5199 64.2885 15.0599C63.9885 15.5999 63.8385 16.2199 63.8385 16.9199C63.8385 17.6199 63.9985 18.2499 64.3185 18.8099C64.6385 19.3699 65.0585 19.8099 65.5785 20.1299C66.1185 20.4499 66.6985 20.6099 67.3185 20.6099ZM85.5662 1.97992C87.7462 1.97992 89.4562 2.42992 90.6962 3.32992C91.9562 4.20992 92.5862 5.58992 92.5862 7.46992C92.5862 8.60992 92.3262 9.59992 91.8062 10.4399C91.2862 11.2799 90.5562 11.9399 89.6162 12.4199C88.6962 12.8999 87.6062 13.1699 86.3462 13.2299L85.9262 11.7299C87.3862 11.7699 88.6962 12.0299 89.8562 12.5099C91.0162 12.9899 91.9362 13.6599 92.6162 14.5199C93.2962 15.3799 93.6362 16.3999 93.6362 17.5799C93.6362 18.6599 93.4362 19.5899 93.0362 20.3699C92.6362 21.1299 92.0962 21.7599 91.4162 22.2599C90.7362 22.7399 89.9662 23.0999 89.1062 23.3399C88.2462 23.5599 87.3562 23.6699 86.4362 23.6699H79.9862V1.97992H85.5662ZM86.1662 11.4899C87.3662 11.4899 88.2362 11.1599 88.7762 10.4999C89.3162 9.81992 89.5862 8.99992 89.5862 8.03992C89.5862 6.89992 89.2362 6.06992 88.5362 5.54992C87.8362 5.02992 86.8962 4.76992 85.7162 4.76992H82.8962V11.4899H86.1662ZM86.2862 20.9699C87.0862 20.9699 87.8162 20.8499 88.4762 20.6099C89.1562 20.3699 89.6862 19.9999 90.0662 19.4999C90.4662 18.9999 90.6662 18.3699 90.6662 17.6099C90.6662 16.7699 90.4362 16.1099 89.9762 15.6299C89.5362 15.1499 88.9662 14.8099 88.2662 14.6099C87.5662 14.3899 86.8462 14.2799 86.1062 14.2799H82.8962V20.9699H86.2862ZM96.7611 17.3399C96.7611 16.0999 97.0511 14.9799 97.6311 13.9799C98.2311 12.9799 99.0511 12.1899 100.091 11.6099C101.131 11.0299 102.311 10.7399 103.631 10.7399C104.991 10.7399 106.181 11.0299 107.201 11.6099C108.221 12.1899 109.011 12.9799 109.571 13.9799C110.131 14.9799 110.411 16.0999 110.411 17.3399C110.411 18.5799 110.131 19.7099 109.571 20.7299C109.011 21.7299 108.211 22.5199 107.171 23.0999C106.151 23.6799 104.961 23.9699 103.601 23.9699C102.281 23.9699 101.101 23.6999 100.061 23.1599C99.0411 22.5999 98.2311 21.8299 97.6311 20.8499C97.0511 19.8499 96.7611 18.6799 96.7611 17.3399ZM99.5511 17.3699C99.5511 18.1699 99.7311 18.8999 100.091 19.5599C100.451 20.1999 100.931 20.7099 101.531 21.0899C102.151 21.4699 102.831 21.6599 103.571 21.6599C104.351 21.6599 105.041 21.4699 105.641 21.0899C106.261 20.7099 106.741 20.1999 107.081 19.5599C107.421 18.8999 107.591 18.1699 107.591 17.3699C107.591 16.5699 107.421 15.8499 107.081 15.2099C106.741 14.5499 106.261 14.0299 105.641 13.6499C105.041 13.2499 104.351 13.0499 103.571 13.0499C102.811 13.0499 102.121 13.2499 101.501 13.6499C100.901 14.0499 100.421 14.5799 100.061 15.2399C99.7211 15.8799 99.5511 16.5899 99.5511 17.3699ZM113.109 17.3399C113.109 16.0999 113.399 14.9799 113.979 13.9799C114.579 12.9799 115.399 12.1899 116.439 11.6099C117.479 11.0299 118.659 10.7399 119.979 10.7399C121.339 10.7399 122.529 11.0299 123.549 11.6099C124.569 12.1899 125.359 12.9799 125.919 13.9799C126.479 14.9799 126.759 16.0999 126.759 17.3399C126.759 18.5799 126.479 19.7099 125.919 20.7299C125.359 21.7299 124.559 22.5199 123.519 23.0999C122.499 23.6799 121.309 23.9699 119.949 23.9699C118.629 23.9699 117.449 23.6999 116.409 23.1599C115.389 22.5999 114.579 21.8299 113.979 20.8499C113.399 19.8499 113.109 18.6799 113.109 17.3399ZM115.899 17.3699C115.899 18.1699 116.079 18.8999 116.439 19.5599C116.799 20.1999 117.279 20.7099 117.879 21.0899C118.499 21.4699 119.179 21.6599 119.919 21.6599C120.699 21.6599 121.389 21.4699 121.989 21.0899C122.609 20.7099 123.089 20.1999 123.429 19.5599C123.769 18.8999 123.939 18.1699 123.939 17.3699C123.939 16.5699 123.769 15.8499 123.429 15.2099C123.089 14.5499 122.609 14.0299 121.989 13.6499C121.389 13.2499 120.699 13.0499 119.919 13.0499C119.159 13.0499 118.469 13.2499 117.849 13.6499C117.249 14.0499 116.769 14.5799 116.409 15.2399C116.069 15.8799 115.899 16.5899 115.899 17.3699ZM130.536 23.6699V0.44992H133.326V23.6699H130.536ZM136.326 15.4199L142.026 23.6699H138.756L134.466 16.9799L136.326 15.4199ZM132.456 19.7099L132.186 17.0399L139.716 10.9799L141.426 12.4499L132.456 19.7099ZM148.958 23.9099C148.078 23.9099 147.218 23.7599 146.378 23.4599C145.558 23.1399 144.878 22.6699 144.338 22.0499L145.508 20.4299C146.028 20.9299 146.558 21.3099 147.098 21.5699C147.658 21.8099 148.208 21.9299 148.748 21.9299C149.148 21.9299 149.518 21.8799 149.858 21.7799C150.198 21.6799 150.468 21.5199 150.668 21.2999C150.888 21.0599 150.998 20.7399 150.998 20.3399C150.998 19.8999 150.848 19.5499 150.548 19.2899C150.268 19.0299 149.898 18.8199 149.438 18.6599C148.998 18.4999 148.528 18.3499 148.028 18.2099C147.008 17.8699 146.228 17.3999 145.688 16.7999C145.148 16.1999 144.878 15.4699 144.878 14.6099C144.878 13.9499 145.038 13.3399 145.358 12.7799C145.698 12.1999 146.188 11.7299 146.828 11.3699C147.488 11.0099 148.298 10.8299 149.258 10.8299C150.118 10.8299 150.888 10.9399 151.568 11.1599C152.248 11.3599 152.888 11.6999 153.488 12.1799L152.378 13.9199C152.018 13.5399 151.588 13.2599 151.088 13.0799C150.588 12.8999 150.138 12.7999 149.738 12.7799C149.398 12.7599 149.068 12.8099 148.748 12.9299C148.448 13.0499 148.198 13.2199 147.998 13.4399C147.798 13.6599 147.698 13.9199 147.698 14.2199C147.698 14.6399 147.838 14.9799 148.118 15.2399C148.398 15.4999 148.758 15.7099 149.198 15.8699C149.658 16.0099 150.108 16.1599 150.548 16.3199C151.168 16.4999 151.718 16.7399 152.198 17.0399C152.678 17.3399 153.058 17.7099 153.338 18.1499C153.638 18.5899 153.788 19.1399 153.788 19.7999C153.788 20.5399 153.608 21.2299 153.248 21.8699C152.908 22.4899 152.378 22.9899 151.658 23.3699C150.958 23.7299 150.058 23.9099 148.958 23.9099Z" fill="black"/>
</svg>
